<?xml version="1.0" standalone="no"?><!DOCTYPE svg PUBLIC "-//W3C//DTD SVG 1.1//EN" "http://www.w3.org/Graphics/SVG/1.1/DTD/svg11.dtd"><svg t="1695467181354" class="icon" viewBox="0 0 1024 1024" version="1.1" xmlns="http://www.w3.org/2000/svg" p-id="5049" xmlns:xlink="http://www.w3.org/1999/xlink" width="200" height="200"><path d="M5.233766 201.216c-6.144 43.52-5.632 45.568-4.608 153.6 1.024 79.36 2.56 216.064 2.56 467.456 0 3.072 1.536 80.896 130.048 124.416 14.848 5.12 163.84 64 172.544 66.56 1.536 0.512 3.584 1.024 5.12 1.024 7.168 0 13.824-4.096 17.408-10.752 4.096-8.192 2.048-18.432-5.12-24.576-1.536-1.536-38.912-33.28-38.912-86.528 0-18.944-2.048-750.08-2.048-758.784 0.512 0 11.264-59.904 42.496-89.6 6.656-6.144 7.68-16.384 3.584-24.576-4.608-8.192-14.336-11.776-22.528-8.704L122.993766 88.576c-12.8 4.608-109.056 46.08-117.76 112.64zM492.145766 1.536C419.953766 1.536 361.585766 61.44 361.585766 134.656v754.176c0 73.728 58.88 133.12 130.56 133.12h400.896c72.192 0 131.072-59.904 131.072-133.12V135.168c0-73.728-58.88-133.12-131.072-133.12z m222.208 856.064c-43.52 0-78.848-35.84-78.848-80.384s35.328-80.384 78.848-80.384 78.848 35.84 78.848 80.384-35.84 80.384-78.848 80.384z m-248.832-348.16V363.52h454.656v145.92c0 33.792-24.576 61.44-54.784 61.44h-345.088c-30.208-0.512-54.784-27.648-54.784-61.44z m0-185.344V178.176c0-33.792 24.576-61.44 54.784-61.44H865.393766c30.208 0 54.784 27.648 54.784 61.44v145.92z" p-id="5050" fill="#1296db"></path></svg>